<svg width="217" height="60" viewBox="0 0 217 60" fill="none" xmlns="http://www.w3.org/2000/svg">
	<g clipPath="url(#clip0_4821_7503)">
		<path d="M64.4288 19.5845C64.4288 17.7301 64.4682 16.073 64.3893 14.416C64.3499 13.548 64.7839 13.2718 65.4546 13.035C74.5686 9.99704 83.367 17.2961 82.3017 26.3312C81.4337 33.4725 74.4108 38.4832 67.5062 37.0629C61.7459 35.8792 58.55 32.2889 57.1691 26.8047C57.0902 26.4496 57.0902 26.055 57.0902 25.6605C57.0902 18.4009 57.1297 11.1412 57.0508 3.92104C57.0508 2.89523 57.327 2.26395 58.3133 1.98777C59.3391 1.71159 60.4044 1.3565 61.4302 1.11977C62.535 0.883045 63.0873 1.15923 63.0873 2.54014C63.0084 10.1943 63.0479 17.809 63.0479 25.4632C63.0479 28.5012 64.5077 30.829 66.875 32.565C69.3606 34.38 73.2271 33.1174 75.0026 30.04C77.2121 26.2523 76.6202 20.8076 73.6217 18.0852C71.0966 15.8363 68.177 15.718 65.7702 18.1247C65.4546 18.5192 65.0206 18.9532 64.4288 19.5845Z" fill="#E7448C" />
		<path d="M8.91667 18.9528C8.91667 17.7297 8.95613 16.0332 8.87722 14.3366C8.83776 13.5475 9.31122 13.2714 9.90303 13.0741C15.5056 11.2986 21.2659 12.7979 24.9747 18.3215C28.131 23.0561 27.3814 29.3294 23.2781 33.4721C19.6089 37.1414 15.2689 38.2461 10.3765 36.6679C5.44467 35.0897 2.72231 31.4994 1.65703 26.5281C1.53867 25.8968 1.61758 25.1866 1.61758 24.5554C1.61758 17.6508 1.65703 10.7857 1.57812 3.92063C1.57812 2.737 2.01212 2.22409 2.95903 1.869C2.99849 1.869 3.03794 1.82954 3.11685 1.79009C7.10176 0.251359 7.57522 0.60645 7.57522 4.78863C7.57522 11.6932 7.57522 18.6372 7.57522 25.5417C7.57522 28.5797 9.07449 30.947 11.4812 32.5646C13.9669 34.2612 17.5572 33.1959 19.4116 30.1974C21.6999 26.5281 21.187 21.1623 18.3463 18.2032C16.1763 15.9543 12.1519 15.6386 10.1003 18.2821C9.82413 18.6766 9.19285 18.8344 8.91667 18.9528Z" fill="#E7448C" />
		<path d="M46.8325 29.9997C46.8325 31.3017 46.8325 32.288 46.8325 33.2744C46.8325 36.5097 46.5168 36.9437 43.2026 37.2593C38.1525 37.7327 34.0492 35.76 31.2874 31.6962C28.2494 27.2378 28.2099 22.2271 31.3663 17.8477C35.6668 11.8111 43.0448 10.3907 49.2786 14.9675C52.6717 17.4531 54.1315 20.8857 54.1315 24.9889C54.171 28.4215 54.1315 31.854 54.1315 35.2866C54.1315 36.1151 54.2105 36.9042 52.9479 36.3124C52.7112 36.194 52.3955 36.3124 52.1194 36.2729C48.963 36.0757 48.1345 35.2077 48.1345 32.1697C48.1345 29.4473 48.2528 26.7249 48.095 24.042C47.9766 21.4775 47.1086 19.1102 44.8992 17.5715C41.9401 15.5198 39.3361 15.9538 37.0083 19.0313C34.207 22.7795 34.5621 28.2637 37.679 31.5384C40.4803 34.4186 44.3468 33.7873 46.8325 29.9997Z" fill="#E7448C" />
		<path d="M172.811 24.8714C172.969 31.4604 166.932 37.418 160.264 37.3391C153.754 37.2996 147.757 31.4604 147.876 24.6742C147.955 18.2431 153.754 12.2065 160.659 12.3644C167.011 12.4827 172.969 18.2036 172.811 24.8714ZM166.853 25.266C166.853 23.0565 166.419 21.3994 165.551 19.8607C163.263 15.7574 159.12 15.2051 156.398 18.1247C153.399 21.3205 153.005 25.8578 155.175 29.8033C157.187 33.512 160.975 34.4984 163.973 31.8944C166.025 30.1189 166.774 27.5938 166.853 25.266Z" fill="#E7448C" />
		<path d="M214.002 34.0641C211.95 35.3661 210.056 36.5497 207.729 37.0626C204.138 37.8517 200.903 37.0232 198.102 35.0504C194.63 32.6042 192.696 29.0928 192.815 24.7528C192.973 18.7951 196.484 14.2973 202.126 12.7981C206.703 11.575 210.727 12.8375 213.726 16.5857C216.803 20.4917 215.856 25.7392 210.254 27.6724C207.255 28.6982 204.217 28.935 201.061 28.3826C199.877 28.1853 199.956 27.199 199.838 26.5282C199.404 24.5161 199.798 24.2793 201.771 24.3582C203.389 24.3977 205.046 24.6344 206.703 24.1215C208.952 23.4508 210.175 22.2671 210.096 20.5706C209.977 18.5979 208.281 16.9802 206.071 16.783C203.467 16.5068 201.14 17.7299 199.995 20.0971C198.536 23.1351 198.338 26.1732 199.759 29.369C201.613 33.5512 206.505 34.6953 209.977 31.8941C210.964 31.105 211.358 31.3022 211.99 32.0913C212.542 32.7226 213.292 33.3539 214.002 34.0641Z" fill="#E7448C" />
		<path d="M108.974 26.5677C108.974 30.158 108.895 33.7484 108.974 37.3782C109.171 45.0719 101.28 51.5819 93.9414 49.7275C93.1129 49.5302 92.2843 49.254 91.4558 48.9779C88.6545 48.0309 88.3389 46.5711 90.2327 44.2433C90.785 43.612 91.0218 43.9671 91.4952 44.3222C94.3754 46.216 97.2556 46.8868 99.9385 44.6379C101.911 43.0202 102.898 40.7319 102.937 38.2068C103.016 30.9077 102.976 23.6086 102.937 16.3095C102.937 15.047 103.055 14.179 104.515 13.9817C104.831 13.9422 105.068 13.666 105.383 13.5477C108.5 12.4824 108.934 12.798 108.934 15.9939C108.974 19.4659 108.974 23.0168 108.974 26.5677Z" fill="#E7448C" />
		<path d="M120.81 37.3388C117.18 37.3388 114.932 36.1552 112.801 34.6559C111.736 33.9063 111.696 33.275 112.604 32.4464C112.762 32.2886 112.801 32.0913 112.919 31.8941C113.669 30.5526 114.3 30.3553 115.563 31.6573C117.338 33.4723 119.666 33.7879 122.112 32.9988C123.296 32.6043 123.848 31.7363 123.967 30.5526C124.046 29.4084 123.572 28.6193 122.546 27.9881C120.81 26.9228 118.719 26.6861 116.983 25.6997C116.036 25.1868 115.129 24.5555 114.3 23.8453C112.328 22.2277 111.894 20.0972 112.485 17.8877C113.117 15.5993 114.892 14.0606 117.259 13.3899C120.968 12.4035 124.124 13.5872 127.084 15.6783C127.754 16.1517 127.991 16.6646 127.399 17.4143C126.926 18.0061 126.571 18.6768 126.097 19.3081C125.545 20.0577 125.15 19.4264 124.795 19.0713C123.414 17.651 121.757 16.9803 119.784 17.0592C118.522 17.0986 117.614 17.8088 117.378 18.953C117.141 20.0183 117.93 20.689 118.877 21.2019C121.126 22.425 123.651 22.8984 125.86 24.3188C130.24 27.1595 129.569 33.3933 125.86 35.6028C124.006 36.747 122.073 37.3783 120.81 37.3388Z" fill="#E7448C" />
		<path d="M138.564 15.1649C138.564 18.0846 138.564 21.0437 138.564 23.9633C138.564 26.804 139.393 29.3291 141.642 31.2624C142.352 31.8542 143.062 32.3277 143.93 32.446C144.996 32.6038 145.311 33.0378 145.272 34.1426C145.193 36.7466 145.272 36.6282 142.707 36.3126C137.46 35.6418 132.488 29.8815 132.567 24.2789C132.646 18.7948 132.607 13.3106 132.607 7.82639C132.607 5.34076 132.962 4.74894 135.408 4.39385C138.841 3.88094 138.604 3.1313 138.604 6.95839C138.564 9.72021 138.564 12.4426 138.564 15.1649Z" fill="#E7448C" />
		<path d="M101.675 30.0395C101.675 31.381 101.675 32.4857 101.675 33.5904C101.675 36.3917 101.359 36.9046 98.5975 37.2203C92.2059 37.9699 86.7217 33.9455 85.4197 27.7906C84.5517 23.6479 85.2224 19.4263 85.0646 15.2441C85.0251 13.6659 86.5244 13.9421 87.3135 13.6264C90.4304 12.2455 91.0222 12.6795 91.0222 16.0332C91.0222 19.229 90.9433 22.4643 91.0617 25.6601C91.1406 28.1063 91.8902 30.513 93.7446 32.1306C96.3091 34.3401 99.6233 33.5115 100.886 30.9864C101.004 30.7103 101.28 30.513 101.675 30.0395Z" fill="#E7448C" />
		<path d="M175.494 29.566C175.691 27.7117 175.376 25.4628 175.77 23.2139C176.836 16.6644 184.016 11.5748 190.842 13.3502C191.986 13.6659 192.223 13.9815 191.631 15.0862C190.921 16.3882 190.605 17.493 188.514 17.1379C185.713 16.6644 183.148 18.8344 182.162 21.7935C181.728 23.0955 181.412 24.3975 181.452 25.7784C181.531 28.5008 181.412 31.1837 181.491 33.906C181.531 34.8924 181.215 35.4448 180.268 35.721C180.15 35.7604 180.071 35.8393 179.992 35.8788C176.007 37.457 175.494 37.1019 175.494 32.9197C175.494 31.9333 175.494 30.947 175.494 29.566Z" fill="#E7448C" />
		<path d="M142.589 18.3609C139.906 18.3609 140.064 18.3609 139.867 15.678C139.709 13.6658 140.656 13.6264 142.155 13.6658C145.272 13.7447 145.193 13.7053 145.272 16.7827C145.311 17.9664 145.035 18.5582 143.773 18.3609C143.378 18.3215 142.984 18.3609 142.589 18.3609Z" fill="#E7448C" />
		<path d="M30.5775 53.9883V54.8168H28.4864V56.1188H30.104V56.9079H28.4864V59.0385H27.5V54.0277H30.5775V53.9883Z" fill="#1C2A54" />
		<path d="M37.3243 58.999L36.2196 57.0263H35.7461V58.999H34.7598V53.9883H36.6536C37.0481 53.9883 37.3638 54.0672 37.6399 54.1856C37.9161 54.3039 38.1134 54.5012 38.2712 54.7379C38.3896 54.9746 38.4685 55.2114 38.4685 55.527C38.4685 55.8426 38.3896 56.1583 38.1923 56.4345C37.995 56.7106 37.7189 56.8685 37.3243 56.9868L38.5079 59.0385H37.3243V58.999ZM35.7461 56.2766H36.5747C36.8509 56.2766 37.0481 56.1977 37.1665 56.0794C37.2849 55.961 37.3638 55.7637 37.3638 55.527C37.3638 55.2903 37.2849 55.1325 37.1665 54.9746C37.0481 54.8563 36.8114 54.7774 36.5747 54.7774H35.7461V56.2766Z" fill="#1C2A54" />
		<path d="M43.8342 58.7232C43.4397 58.4865 43.124 58.2103 42.8873 57.8158C42.6506 57.4212 42.5322 56.9872 42.5322 56.4743C42.5322 56.0009 42.6506 55.5274 42.8873 55.1723C43.124 54.7778 43.4397 54.4621 43.8342 54.2649C44.2288 54.0281 44.6628 53.9492 45.1362 53.9492C45.6097 53.9492 46.0437 54.0676 46.4382 54.2649C46.8328 54.5016 47.1484 54.7778 47.3457 55.1723C47.5824 55.5669 47.7008 56.0009 47.7008 56.4743C47.7008 56.9872 47.5824 57.4212 47.3457 57.8158C47.109 58.2103 46.7933 58.5259 46.3988 58.7232C46.0042 58.9599 45.5702 59.0389 45.0968 59.0389C44.6233 59.0389 44.2288 58.9205 43.8342 58.7232ZM45.9253 57.9341C46.162 57.8158 46.3199 57.6185 46.4777 57.3423C46.596 57.1056 46.675 56.7899 46.675 56.4743C46.675 56.1587 46.596 55.843 46.4777 55.6063C46.3593 55.3696 46.162 55.1723 45.9253 55.0145C45.6886 54.8961 45.4124 54.8172 45.1362 54.8172C44.8206 54.8172 44.5839 54.8961 44.3471 55.0145C44.1104 55.1329 43.9526 55.3301 43.7948 55.6063C43.6764 55.843 43.5975 56.1587 43.5975 56.4743C43.5975 56.8294 43.6764 57.1056 43.7948 57.3423C43.9131 57.579 44.1104 57.7763 44.3471 57.9341C44.5839 58.0525 44.86 58.1314 45.1362 58.1314C45.4519 58.1314 45.6886 58.0525 45.9253 57.9341Z" fill="#1C2A54" />
		<path d="M57.3672 53.9883V58.999H56.3808V55.7243L55.0394 58.999H54.2897L52.9483 55.7243V58.999H51.9619V53.9883H53.1061L54.6843 57.7365L56.2625 53.9883H57.3672Z" fill="#1C2A54" />
		<path d="M70.3865 53.9883V54.8168H69.045V59.0385H68.0586V54.8168H66.6777V53.9883H70.3865Z" fill="#1C2A54" />
		<path d="M75.5557 53.9883V57.1052C75.5557 57.4603 75.6346 57.697 75.8319 57.8943C75.9897 58.0916 76.2659 58.1705 76.5815 58.1705C76.8972 58.1705 77.1733 58.0916 77.3312 57.8943C77.489 57.697 77.6073 57.4603 77.6073 57.1052V53.9883H78.6332V57.0657C78.6332 57.4997 78.5542 57.8548 78.357 58.131C78.1597 58.4072 77.923 58.6439 77.6073 58.8017C77.2917 58.9596 76.9366 59.0385 76.5815 59.0385C76.2264 59.0385 75.8713 58.9596 75.5557 58.8017C75.2401 58.6439 75.0033 58.4466 74.8455 58.131C74.6877 57.8548 74.5693 57.4603 74.5693 57.0657V53.9883H75.5557Z" fill="#1C2A54" />
		<path d="M88.4971 53.9883V58.999H87.5107V55.7243L86.1692 58.999H85.4196L84.0782 55.7243V58.999H83.0918V53.9883H84.236L85.8142 57.7365L87.3923 53.9883H88.4971Z" fill="#1C2A54" />
		<path d="M98.3994 53.9883V58.999H97.413V55.7243L96.0716 58.999H95.322L93.9805 55.7243V58.999H92.9941V53.9883H94.1383L95.7165 57.7365L97.2947 53.9883H98.3994Z" fill="#1C2A54" />
		<path d="M106.803 53.9887L105.107 57.2634V58.9994H104.12V57.2239L102.424 53.9492H103.568L104.633 56.2376L105.699 53.9492H106.803V53.9887Z" fill="#1C2A54" />
		<path d="M119.429 53.9883V54.8168H118.088V59.0385H117.101V54.8168H115.76V53.9883H119.429Z" fill="#1C2A54" />
		<path d="M124.637 58.7232C124.242 58.4865 123.927 58.2103 123.69 57.8158C123.453 57.4212 123.335 56.9872 123.335 56.4743C123.335 56.0009 123.453 55.5274 123.69 55.1723C123.927 54.7778 124.242 54.4621 124.637 54.2649C125.032 54.0281 125.466 53.9492 125.939 53.9492C126.412 53.9492 126.846 54.0676 127.241 54.2649C127.636 54.5016 127.951 54.7778 128.148 55.1723C128.385 55.5669 128.504 56.0009 128.504 56.4743C128.504 56.9872 128.385 57.4212 128.148 57.8158C127.912 58.2103 127.596 58.5259 127.202 58.7232C126.807 58.9599 126.373 59.0389 125.9 59.0389C125.426 59.0389 125.032 58.9205 124.637 58.7232ZM126.728 57.9341C126.965 57.8158 127.123 57.6185 127.28 57.3423C127.399 57.1056 127.478 56.7899 127.478 56.4743C127.478 56.1587 127.399 55.843 127.28 55.6063C127.162 55.3696 126.965 55.1723 126.728 55.0145C126.491 54.8961 126.215 54.8172 125.939 54.8172C125.663 54.8172 125.387 54.8961 125.15 55.0145C124.913 55.1329 124.755 55.3301 124.597 55.6063C124.44 55.8825 124.4 56.1587 124.4 56.4743C124.4 56.8294 124.479 57.1056 124.597 57.3423C124.716 57.579 124.913 57.7763 125.15 57.9341C125.387 58.0525 125.663 58.1314 125.939 58.1314C126.215 58.1314 126.491 58.0525 126.728 57.9341Z" fill="#1C2A54" />
		<path d="M141.247 53.9883V54.8168H139.906V59.0385H138.92V54.8168H137.578V53.9883H141.247Z" fill="#1C2A54" />
		<path d="M146.494 58.7232C146.1 58.4865 145.784 58.2103 145.547 57.8158C145.311 57.4212 145.192 56.9872 145.192 56.4743C145.192 56.0009 145.311 55.5274 145.547 55.1723C145.784 54.7778 146.1 54.4621 146.494 54.2649C146.889 54.0281 147.323 53.9492 147.796 53.9492C148.27 53.9492 148.704 54.0676 149.098 54.2649C149.493 54.5016 149.809 54.7778 150.006 55.1723C150.243 55.5669 150.361 56.0009 150.361 56.4743C150.361 56.9872 150.243 57.4212 150.006 57.8158C149.769 58.2103 149.453 58.5259 149.059 58.7232C148.664 58.9599 148.23 59.0389 147.757 59.0389C147.283 59.0389 146.889 58.9205 146.494 58.7232ZM148.585 57.9341C148.822 57.8158 148.98 57.6185 149.138 57.3423C149.256 57.1056 149.335 56.7899 149.335 56.4743C149.335 56.1587 149.256 55.843 149.138 55.6063C149.019 55.3696 148.822 55.1723 148.585 55.0145C148.349 54.8961 148.073 54.8172 147.796 54.8172C147.481 54.8172 147.244 54.8961 147.007 55.0145C146.771 55.1329 146.613 55.3301 146.455 55.6063C146.297 55.8825 146.258 56.1587 146.258 56.4743C146.258 56.8294 146.337 57.1056 146.455 57.3423C146.573 57.579 146.771 57.7763 147.007 57.9341C147.244 58.0525 147.52 58.1314 147.796 58.1314C148.073 58.1314 148.349 58.0525 148.585 57.9341Z" fill="#1C2A54" />
		<path d="M157.7 54.2649C158.094 54.4621 158.41 54.7778 158.607 55.1329C158.844 55.5274 158.923 55.9614 158.923 56.4743C158.923 56.9872 158.805 57.4212 158.607 57.7763C158.371 58.1709 158.094 58.447 157.7 58.6443C157.305 58.8416 156.832 58.9599 156.319 58.9599H154.583V53.9492H156.319C156.832 53.9887 157.266 54.0676 157.7 54.2649ZM157.463 57.6974C157.739 57.4212 157.897 56.9872 157.897 56.4743C157.897 55.9614 157.739 55.5274 157.463 55.2512C157.187 54.975 156.753 54.8172 156.24 54.8172H155.53V58.1314H156.24C156.792 58.1314 157.187 57.9736 157.463 57.6974Z" fill="#1C2A54" />
		<path d="M166.301 54.2649C166.696 54.4621 167.012 54.7778 167.209 55.1329C167.446 55.5274 167.525 55.9614 167.525 56.4743C167.525 56.9872 167.406 57.4212 167.209 57.7763C166.972 58.1709 166.696 58.447 166.301 58.6443C165.907 58.8416 165.433 58.9599 164.921 58.9599H163.185V53.9492H164.921C165.433 53.9887 165.867 54.0676 166.301 54.2649ZM166.065 57.6974C166.341 57.4212 166.499 56.9872 166.499 56.4743C166.499 55.9614 166.341 55.5274 166.065 55.2512C165.789 54.975 165.355 54.8172 164.842 54.8172H164.131V58.1314H164.842C165.394 58.1314 165.789 57.9736 166.065 57.6974Z" fill="#1C2A54" />
		<path d="M172.731 58.1709H174.389V58.9599H171.745V53.9492H172.731V58.1709Z" fill="#1C2A54" />
		<path d="M179.479 54.7774V56.0399H181.175V56.829H179.479V58.1705H181.373V58.999H178.453V53.9883H181.373V54.8168H179.479V54.7774Z" fill="#1C2A54" />
		<path d="M188.357 58.999L187.252 57.0263H186.778V58.999H185.792V53.9883H187.686C188.08 53.9883 188.396 54.0672 188.672 54.1856C188.948 54.3039 189.146 54.5012 189.303 54.7379C189.422 54.9746 189.501 55.2114 189.501 55.527C189.501 55.8426 189.422 56.1583 189.225 56.4345C189.027 56.7106 188.751 56.8685 188.357 56.9868L189.54 59.0385H188.357V58.999ZM186.778 56.2766H187.607C187.883 56.2766 188.08 56.1977 188.199 56.0794C188.317 55.961 188.396 55.7637 188.396 55.527C188.396 55.2903 188.317 55.1325 188.199 54.9746C188.08 54.8563 187.844 54.7774 187.607 54.7774H186.778V56.2766Z" fill="#1C2A54" />
	</g>
	<defs>
		<clipPath id="clip0_4821_7503">
			<rect width="217" height="59.1818" fill="white" transform="translate(0 0.40918)" />
		</clipPath>
	</defs>
</svg>
