<svg width="40" height="40" viewBox="0 0 40 40" fill="none" xmlns="http://www.w3.org/2000/svg">
<g clip-path="url(#clip0_4950_41491)">
<path d="M4.83263 31.05C7.40451 28.3109 14.1561 22.5 23.7498 22.5V30L36.2498 17.5L23.7498 5V12.5C15.4998 12.5 4.92326 20.3828 3.74982 30.5531C3.73357 30.6848 3.75967 30.8183 3.82433 30.9342C3.88898 31.05 3.98885 31.1423 4.10945 31.1977C4.23006 31.253 4.36516 31.2685 4.49517 31.242C4.62519 31.2154 4.74338 31.1482 4.83263 31.05Z" fill="#E2E0DE"/>
<path d="M4.83263 31.05C7.40451 28.3109 14.1561 22.5 23.7498 22.5V30L36.2498 17.5L23.7498 5V12.5C15.4998 12.5 4.92326 20.3828 3.74982 30.5531C3.73357 30.6848 3.75967 30.8183 3.82433 30.9342C3.88898 31.05 3.98885 31.1423 4.10945 31.1977C4.23006 31.253 4.36516 31.2685 4.49517 31.242C4.62519 31.2154 4.74338 31.1482 4.83263 31.05Z" stroke="#E2E0DE" stroke-width="1.5" stroke-linecap="round" stroke-linejoin="round"/>
</g>
<defs>
<clipPath id="clip0_4950_41491">
<rect width="40" height="40" fill="white"/>
</clipPath>
</defs>
</svg>
